# xmcd
#
# Track frame offsets: 
#        150
#        22257
#        43638
#        64238
#        84568
#        106895
#        129380
#        148450
#        169036
#        193490
#        213318
#        237039
#        259061
#        282800
#        305708
#        328798
#
# Disc length: 4744 seconds
#
# Revision: 0
# Processed by: cddbd v1.5.2PL0 Copyright (c) Steve Scherf et al.
# Submitted via: ExactAudioCopy v1.1
#
DISCID=f7128610
DTITLE=Surface - 2nd Wave
DYEAR=1988
DGENRE=Soul
TTITLE0=Shower Me With Your Love
TTITLE1=Closer Than Friends
TTITLE2=Can We Spend Some Time
TTITLE3=You Are My Everything
TTITLE4=I Missed
TTITLE5=Black Shades
TTITLE6=Hold On To Love
TTITLE7=Where's That Girl
TTITLE8=I Missed (12" Version)
TTITLE9=Shower Me With You Love (Instrumental)
TTITLE10=Closer Than Friends (12" Version)
TTITLE11=Your Are My Everhthing (Extended Version)
TTITLE12=I Missed (Acappella Version)
TTITLE13=Closer Than Friends (12" Version)
TTITLE14=You Are My Everything (Pic's Jazz Version)
TTITLE15=I Missed (Dub Version)
EXTD=
EXTT0=
EXTT1=
EXTT2=
EXTT3=
EXTT4=
EXTT5=
EXTT6=
EXTT7=
EXTT8=
EXTT9=
EXTT10=
EXTT11=
EXTT12=
EXTT13=
EXTT14=
EXTT15=
PLAYORDER=
